<svg id="Capa_1" data-name="Capa 1" xmlns="http://www.w3.org/2000/svg" viewBox="0 0 765.56 738"><defs><style>.cls-1{opacity:0.22;}.cls-2{fill:#55bcbc;}.cls-3{fill:#3bb5a8;}.cls-4{fill:#ed7699;}.cls-5{fill:#e73b84;}.cls-6{fill:#3969ad;}.cls-7{fill:#f7a93d;}.cls-8{fill:#f8cd09;}.cls-9{fill:#fff;}</style></defs><g class="cls-1"><path class="cls-2" d="M103.31,392.42l20.18-50.17-17.59-7.14L102,344.77,83.4,337.28l3.91-9.72L38.86,307.9l-3.75,9.31a11.08,11.08,0,1,1-8.27,20.56l-7.49,18.61a11.08,11.08,0,1,1-8.27,20.56l-7.5,18.62h0l179.26,72.76,47.94-23.95Zm-32.6,30.15-18.62-7.49,7.5-18.62L78.2,404Zm15.43-38.35-18.62-7.49L75.46,357l18.62,7.5Z"/><path class="cls-3" d="M91.34,317.55,110,325l-4.06,10.07,17.59,7.14,13.83-34.37,6.57-16.31L287.2,350l-4.26-45L141.18,247.45l-7.41,18.41-18.62-7.49,7.44-18.47L74.14,220.24h0l-7.49,18.61a11.08,11.08,0,1,1-8.28,20.56L50.88,278a11.08,11.08,0,1,1-8.28,20.56l-3.74,9.31,48.45,19.66Zm15.87-39.45,18.62,7.49-7.94,19.73-18.61-7.49Z"/><polygon class="cls-4" points="293 411.04 123.5 342.25 103.31 392.42 230.79 444.37 293.2 413.18 293 411.04"/><polygon class="cls-4" points="292.99 411.02 123.6 342 137.32 307.89 123.49 342.25 292.99 411.04 292.99 411.02"/><polygon class="cls-4" points="287.2 349.97 143.89 291.57 287.2 349.97 287.2 349.97"/><polygon class="cls-5" points="292.99 411.02 287.2 349.97 143.89 291.57 137.32 307.89 123.6 342 292.99 411.02"/><path class="cls-5" d="M143.89,291.57l-6.57,16.31Z"/><path class="cls-3" d="M155.47,575.57l17.93-9,4.87,9.69,17-8.48-.12-.24-22.32-44.34L170.69,519h0l61.5-30.61-49.34-20-47.06,23.52,8.93,17.72-17.93,9-9-17.78L71.07,524.17h0l9,17.93a11.08,11.08,0,0,1,10,19.8l9,17.92a11.08,11.08,0,0,1,10,19.79l4.5,9,46.78-23.38Zm-19.12-38,17.92-9,9.57,19-17.93,9Z"/><polygon class="cls-3" points="280.12 464.47 230.78 444.36 182.85 468.31 232.19 488.34 280.12 464.47"/><polygon class="cls-3" points="293.2 413.18 230.78 444.37 280.12 464.47 297.25 455.94 293.2 413.18"/><polygon class="cls-6" points="144.72 509.56 135.79 491.83 117.84 500.8 126.79 518.58 144.72 509.56"/><polygon class="cls-4" points="299.51 515.66 195.25 567.75 219.57 616.06 308.25 571.9 303.06 517.1 299.51 515.66"/><polygon class="cls-4" points="303.06 517.1 302.76 514.03 299.51 515.66 303.06 517.1"/><polygon class="cls-4" points="232.18 488.33 170.7 518.95 232.18 488.34 232.18 488.33"/><polygon class="cls-4" points="299.37 515.61 195.13 567.5 195.25 567.75 299.51 515.66 299.37 515.61"/><rect class="cls-4" x="256.15" y="449.63" height="53.55"/><polygon class="cls-4" points="299.37 515.61 299.51 515.66 302.77 514.03 302.75 513.92 299.37 515.61"/><polygon class="cls-4" points="297.25 455.94 297.25 455.93 280.12 464.47 297.25 455.94"/><polygon class="cls-5" points="232.19 488.34 170.69 518.96 172.81 523.17 195.13 567.5 299.37 515.6 232.19 488.34"/><polygon class="cls-5" points="298.79 472.07 280.12 464.47 232.19 488.34 299.38 515.61 302.76 513.92 298.79 472.07"/><polygon class="cls-5" points="297.25 455.94 280.12 464.47 298.78 472.07 297.25 455.94"/><path class="cls-7" d="M328.26,184.22l-6.82-76.34-134.37,12a12.48,12.48,0,0,1-10.69-20.44l28.46-34-34-28.46a12.48,12.48,0,0,1,6.9-22L324.52,1.82a12.48,12.48,0,0,1,13.54,11.33L353.13,182"/><path class="cls-8" d="M232,71.83,214.87,92.32,319.23,83,314.3,27.8,209.94,37.11l20.49,17.14A12.48,12.48,0,0,1,232,71.83"/><path class="cls-9" d="M330.52,712.8Q309.25,695,306.33,661.46L269,234.69q-2.87-32.7,13.15-51.8T330.87,161l204.21-17.87q93.33-8.16,149.33,34.76t63.41,127.49q7.32,83.76-40.74,136.19t-140.6,60.53L441.24,513l11.87,135.61q2.92,33.51-15.3,54.79T385.28,727.7q-33.51,2.92-54.76-14.9M536.91,393.71q40.7-3.56,58.77-22t15-53.56q-6.07-69.4-85.84-62.42l-105.3,9.21,12.07,138Z"/></g></svg>